<?xml version="1.0" standalone="no"?>
<!DOCTYPE svg PUBLIC "-//W3C//DTD SVG 20010904//EN"
 "http://www.w3.org/TR/2001/REC-SVG-20010904/DTD/svg10.dtd">
<svg version="1.0" xmlns="http://www.w3.org/2000/svg"
 width="936.000000pt" height="854.000000pt" viewBox="0 0 936.000000 854.000000"
 preserveAspectRatio="xMidYMid meet">

<g transform="translate(0.000000,854.000000) scale(0.100000,-0.100000)"
fill="#000000" stroke="none">
<path d="M4700 8473 c-28 -16 -90 -78 -165 -165 -66 -76 -131 -151 -145 -167
-71 -78 -110 -127 -110 -136 0 -5 11 -23 25 -39 32 -37 31 -42 -3 -60 -31 -16
-29 -17 -122 67 -94 86 -224 197 -229 197 -4 0 -28 -13 -54 -30 l-47 -30 0 25
c0 14 -4 25 -9 25 -4 0 -93 -27 -197 -60 -104 -34 -220 -70 -258 -82 -37 -11
-88 -32 -112 -45 l-43 -24 5 -132 c7 -162 6 -159 39 -147 42 16 65 12 65 -10
0 -17 -7 -20 -51 -20 -67 0 -162 -25 -218 -58 l-44 -26 7 50 c13 100 -28 220
-105 308 -52 59 -184 132 -276 151 -85 18 -264 19 -363 1 -209 -38 -508 -177
-616 -287 l-39 -40 24 -42 c85 -151 207 -355 221 -370 17 -18 19 -18 59 3 l42
21 20 -48 c12 -26 40 -91 64 -143 56 -125 168 -378 249 -565 36 -82 69 -151
75 -153 16 -5 363 108 406 133 83 48 79 36 47 161 -16 60 -33 121 -37 134 -5
17 7 9 46 -32 76 -77 144 -103 264 -102 102 1 166 22 247 80 27 19 48 31 48
26 1 -18 13 -127 14 -128 0 -1 82 11 181 26 134 19 193 33 230 51 l50 25 5
112 5 111 325 -160 324 -160 48 22 c26 12 50 31 54 41 3 10 4 80 3 156 l-3
137 65 21 c35 11 78 28 96 37 18 10 34 17 36 17 2 0 -2 -34 -9 -76 -7 -42 -11
-81 -8 -85 3 -5 17 -9 31 -9 14 0 53 -5 87 -10 280 -49 288 -49 328 -29 l38
19 30 -60 c17 -33 35 -60 40 -60 6 0 22 7 35 16 25 16 25 16 25 -12 0 -53 -22
-46 386 -120 73 -13 85 -13 120 2 62 25 74 40 63 77 -18 63 -13 74 34 80 24 3
51 9 61 13 17 7 18 2 11 -72 l-7 -80 154 -19 153 -20 3 -65 3 -65 77 -24 c42
-12 115 -34 161 -48 l84 -25 51 25 51 25 89 273 c49 151 143 434 208 629 64
195 114 357 110 361 -4 3 -103 29 -221 57 -198 47 -216 50 -242 37 -36 -19
-39 -19 -39 4 0 11 -3 22 -7 24 -5 3 -121 30 -260 61 l-252 57 -50 -26 -51
-25 0 -130 0 -130 -26 0 c-41 0 -146 -30 -180 -51 -17 -10 -36 -19 -41 -19 -5
0 -24 96 -42 213 -18 116 -35 222 -38 235 -5 22 -7 22 -182 22 -170 0 -177 -1
-216 -25 -37 -23 -49 -24 -176 -25 -125 0 -139 -2 -186 -26 -41 -20 -53 -31
-57 -55 -3 -16 -9 -42 -12 -58 l-5 -29 -25 23 c-35 32 -105 64 -187 84 l-69
17 138 71 c76 39 140 75 141 80 4 11 -199 316 -213 320 -5 1 -29 -9 -54 -24z
m111 -220 c16 -23 29 -44 29 -47 0 -7 -296 -156 -309 -156 -5 0 -12 7 -15 16
-5 14 17 45 114 155 8 10 35 42 60 73 l45 55 23 -27 c13 -15 36 -46 53 -69z
m919 -325 c7 -51 23 -154 35 -229 l21 -136 -33 -49 c-56 -82 -76 -148 -77
-244 -1 -75 3 -93 30 -150 33 -69 98 -141 144 -160 18 -7 30 -21 33 -38 3 -15
4 -28 2 -30 -1 -2 -58 5 -124 15 -107 15 -122 20 -126 38 -3 11 -18 109 -34
219 -16 109 -31 200 -33 202 -2 2 -25 -50 -50 -114 l-46 -117 -66 139 c-36 76
-66 142 -66 147 0 5 -4 9 -9 9 -4 0 -20 -78 -36 -174 l-27 -174 -37 5 c-54 7
-194 33 -197 36 -1 1 6 46 15 99 16 97 16 98 69 151 l54 55 -39 31 -40 32 38
226 c21 124 40 232 43 240 4 11 31 13 123 11 l117 -3 30 -164 c34 -187 29
-190 72 57 l28 162 86 0 86 0 14 -92z m-1985 -68 c4 -83 11 -152 14 -154 4 -3
28 26 54 62 135 193 168 237 176 237 12 0 211 -191 211 -203 0 -5 -67 -81
-150 -168 -82 -87 -146 -161 -142 -165 4 -3 68 -30 142 -59 82 -32 141 -61
150 -74 68 -96 158 -160 262 -187 39 -10 73 -21 75 -23 2 -2 2 -46 1 -99 l-3
-96 -370 183 -370 183 -3 -193 c-2 -191 -3 -194 -25 -199 -23 -5 -147 -25
-158 -25 -4 0 -10 34 -14 75 -6 68 -4 81 24 154 53 136 39 279 -35 377 -40 52
-40 51 -49 184 -3 52 -9 117 -12 143 -6 52 -5 52 -76 31 -16 -5 -18 0 -15 37
l3 43 140 42 c77 23 145 42 152 43 8 1 13 -45 18 -149z m-1105 98 c117 -25
243 -131 275 -233 47 -152 -42 -345 -228 -491 -39 -31 -71 -59 -71 -63 6 -25
81 -313 100 -381 13 -46 24 -87 24 -91 0 -7 -200 -73 -204 -67 -2 3 -82 180
-332 738 -48 107 -89 197 -91 199 -2 3 -24 -5 -48 -17 -25 -12 -49 -22 -54
-22 -9 0 -151 235 -151 249 0 3 39 27 88 53 233 124 487 170 692 126z m2157
-70 c29 -10 73 -38 97 -61 l46 -42 -116 -120 c-63 -66 -133 -141 -155 -167
-40 -47 -40 -48 -16 -48 47 0 128 34 170 70 31 27 45 34 53 26 6 -6 40 -38 77
-71 l67 -59 -26 -27 c-67 -70 -233 -143 -353 -155 -73 -8 -168 9 -231 41 -151
77 -210 278 -128 439 83 162 326 245 515 174z m1694 -19 c85 -17 156 -32 157
-34 2 -2 28 -117 58 -257 30 -139 56 -257 57 -262 2 -6 11 24 21 65 46 191 97
393 100 396 8 8 246 -52 243 -62 -2 -5 -82 -247 -178 -537 -137 -417 -177
-527 -189 -524 -8 3 -47 14 -86 25 l-71 21 -6 182 c-4 99 -7 245 -8 322 0 90
-4 134 -9 121 -7 -15 -69 -355 -83 -455 -3 -16 -18 -16 -128 1 l-66 10 5 67
c4 63 7 70 49 115 24 26 61 82 81 125 35 73 37 82 37 177 0 112 -16 161 -74
227 -26 30 -31 43 -27 70 3 18 8 56 11 85 l6 52 -36 7 c-34 6 -35 8 -35 50 0
24 4 44 9 44 4 0 78 -14 162 -31z m-287 -250 c170 -47 240 -232 153 -404 -34
-67 -134 -159 -202 -185 -150 -56 -298 -10 -362 113 -40 75 -39 177 2 262 76
157 262 255 409 214z m-2059 -137 c-2 -2 -68 19 -74 25 -3 2 11 19 30 39 l34
35 6 -48 c3 -26 5 -49 4 -51z m-727 42 c50 -25 111 -87 126 -129 63 -171 -28
-372 -210 -462 -66 -32 -84 -36 -148 -36 -165 0 -277 109 -279 272 -2 146 89
280 238 352 51 25 72 29 141 29 66 0 89 -4 132 -26z"/>
<path d="M2507 7675 c-21 -7 -40 -15 -42 -17 -6 -5 100 -356 110 -366 10 -10
120 86 147 127 35 57 39 147 8 198 -39 64 -136 90 -223 58z m119 -81 c12 -3
26 -20 33 -39 10 -27 9 -40 -5 -74 -26 -65 -31 -60 -63 52 -21 73 -20 76 35
61z"/>
<path d="M4525 7763 c-100 -53 -136 -154 -87 -250 19 -36 58 -73 66 -61 1 2
53 61 115 131 62 71 111 133 108 140 -2 6 -23 21 -47 34 -50 27 -112 29 -155
6z m83 -80 c-23 -27 -64 -75 -86 -100 -10 -13 -22 -20 -26 -16 -11 11 -6 53
10 84 16 33 43 47 88 48 27 1 28 0 14 -16z"/>
<path d="M6035 7558 c-121 -42 -143 -203 -37 -273 78 -52 165 -42 225 24 42
47 54 95 36 148 l-12 38 -11 -39 c-15 -53 -69 -83 -120 -66 -44 14 -69 43 -69
80 0 34 37 80 65 80 10 0 18 5 18 10 0 13 -56 12 -95 -2z"/>
<path d="M3235 7481 c-90 -22 -135 -76 -135 -160 0 -51 35 -101 90 -128 55
-29 101 -29 157 -2 50 24 79 60 88 111 7 39 -10 108 -26 108 -6 0 -8 -9 -4
-19 4 -13 -3 -30 -23 -52 -24 -27 -35 -31 -73 -31 -36 1 -49 6 -71 32 -16 16
-28 37 -28 46 0 27 33 72 57 79 13 3 23 10 23 15 0 11 -11 11 -55 1z"/>
<path d="M6940 6615 c0 -8 4 -15 9 -15 6 0 11 -17 13 -37 4 -47 22 -46 26 1 2
20 10 37 19 40 12 5 14 -1 11 -34 -2 -26 1 -41 9 -44 9 -4 13 4 14 22 0 27 1
27 11 5 6 -13 15 -23 20 -23 5 0 13 10 18 23 8 21 9 20 9 -7 1 -21 4 -27 12
-19 14 14 7 95 -9 101 -7 2 -16 -5 -19 -17 -6 -23 -23 -29 -23 -7 0 18 -22 26
-76 26 -32 0 -44 -4 -44 -15z"/>
<path d="M3690 6402 c-30 -15 -58 -31 -62 -36 -3 -5 -4 -30 -1 -56 5 -43 3
-48 -19 -53 -12 -4 -44 -7 -69 -7 -26 0 -75 -9 -110 -19 -35 -11 -89 -26 -119
-34 -387 -102 -525 -149 -581 -196 -13 -11 -49 -40 -79 -64 -30 -24 -122 -97
-205 -162 -82 -65 -177 -139 -209 -164 -113 -88 -121 -98 -201 -271 -151 -322
-175 -371 -215 -430 -35 -52 -44 -76 -65 -183 -13 -67 -49 -246 -80 -397 l-55
-275 10 -165 c20 -324 50 -833 50 -850 0 -9 12 -33 28 -53 15 -20 38 -52 52
-72 14 -20 30 -42 35 -48 6 -7 32 -43 58 -80 52 -73 33 -61 275 -173 42 -20
111 -52 152 -71 41 -20 100 -46 130 -60 205 -91 220 -101 315 -210 50 -57 97
-112 105 -121 8 -9 28 -33 44 -52 16 -19 56 -66 90 -104 33 -39 79 -90 101
-115 22 -25 45 -51 50 -57 6 -6 33 -37 60 -69 28 -32 100 -115 160 -185 61
-69 164 -189 230 -265 66 -76 125 -143 130 -149 6 -6 37 -42 70 -81 33 -38 72
-83 86 -100 149 -173 278 -311 312 -333 23 -15 44 -30 45 -34 2 -5 10 -8 18
-8 8 0 14 -4 14 -8 0 -11 59 -37 215 -96 134 -50 126 -50 655 -77 l225 -11
130 32 c548 133 483 113 665 212 91 50 183 100 205 111 46 24 118 67 190 112
156 99 334 214 525 340 85 56 160 104 166 106 5 2 102 57 215 122 l205 117
129 26 c163 32 163 32 265 0 47 -14 116 -30 154 -34 69 -9 70 -9 103 22 22 20
36 44 39 66 5 35 3 37 -181 200 -102 91 -205 182 -228 203 -23 21 -64 57 -91
80 -27 23 -58 51 -70 62 -31 29 -199 179 -286 255 -64 56 -128 113 -190 170
-9 8 -32 29 -51 45 -19 17 -97 87 -174 156 -77 69 -153 136 -169 149 -33 29
-24 20 -139 124 l-88 79 -127 -18 c-339 -46 -446 -74 -1282 -335 -444 -139
-576 -178 -1065 -315 -104 -29 -228 -65 -275 -78 -84 -25 -91 -25 -547 -29
l-463 -5 0 33 c0 21 6 34 18 39 16 6 16 7 -2 20 -17 13 -18 31 -12 402 9 488
16 608 71 1078 24 209 49 430 55 490 7 66 42 232 86 415 41 168 86 357 100
420 21 92 51 174 155 415 l130 300 87 84 c166 160 135 142 263 148 220 9 393
20 337 21 l-57 2 -3 62 -3 62 -65 28 c-59 25 -76 27 -190 27 -115 0 -129 -2
-180 -27z"/>
<path d="M3770 6190 c-8 -5 -11 -12 -7 -16 4 -4 13 -2 19 4 15 15 7 24 -12 12z"/>
<path d="M3724 6145 c-17 -13 -17 -14 -2 -15 9 0 20 5 23 11 11 17 0 20 -21 4z"/>
<path d="M3684 6106 c-10 -8 -16 -17 -13 -20 3 -3 14 1 25 8 10 8 16 17 13 20
-3 3 -14 -1 -25 -8z"/>
<path d="M3635 6059 c-11 -17 0 -20 21 -4 17 13 17 14 2 15 -9 0 -20 -5 -23
-11z"/>
<path d="M3595 6019 c-11 -17 0 -20 21 -4 17 13 17 14 2 15 -9 0 -20 -5 -23
-11z"/>
<path d="M3558 5965 c-12 -26 -4 -46 11 -29 5 5 12 19 16 32 9 31 -12 29 -27
-3z"/>
<path d="M3533 5898 c-19 -24 -23 -48 -9 -48 8 0 19 14 25 30 10 30 1 40 -16
18z"/>
<path d="M3496 5808 c-18 -25 -21 -48 -7 -48 10 0 36 58 28 66 -3 3 -12 -5
-21 -18z"/>
<path d="M3451 5710 c-13 -39 10 -42 27 -5 15 33 15 35 -2 35 -8 0 -19 -13
-25 -30z"/>
<path d="M3426 5638 c-18 -25 -21 -48 -7 -48 10 0 36 58 28 66 -3 3 -12 -5
-21 -18z"/>
<path d="M3378 5535 c-6 -14 -8 -28 -4 -33 9 -8 36 26 36 45 0 22 -20 14 -32
-12z"/>
<path d="M3342 5445 c-14 -31 -15 -45 -4 -45 9 0 32 44 32 60 0 19 -17 10 -28
-15z"/>
<path d="M3316 5362 c-11 -19 -18 -82 -8 -82 9 0 32 59 32 83 0 9 -17 9 -24
-1z"/>
<path d="M3281 5213 c-13 -47 -13 -53 -2 -53 9 0 31 53 31 76 0 28 -19 13 -29
-23z"/>
<path d="M3250 5089 c-6 -23 -9 -44 -5 -47 10 -10 26 14 32 51 8 51 -13 48
-27 -4z"/>
<path d="M3233 4994 c-16 -28 -20 -68 -8 -72 12 -2 28 52 23 76 -3 14 -6 14
-15 -4z"/>
<path d="M5373 4803 c-16 -82 -71 -290 -121 -463 -147 -512 -170 -595 -163
-598 4 -1 77 23 162 54 89 32 256 80 394 114 201 48 266 60 400 70 88 7 175
11 193 8 38 -5 39 -2 9 36 -30 38 -84 45 -299 41 -140 -2 -194 -8 -378 -43
-118 -22 -217 -38 -218 -37 -2 2 26 165 63 362 37 197 69 374 72 394 l5 36 42
-12 c24 -7 76 -30 117 -50 76 -38 79 -34 19 25 -43 43 -253 210 -263 210 -2 0
-17 -66 -34 -147z"/>
<path d="M3202 4873 c-14 -26 -19 -72 -7 -73 13 -2 36 78 25 85 -5 3 -13 -2
-18 -12z"/>
<path d="M3162 4718 c-6 -24 -7 -47 -3 -51 12 -12 19 2 27 51 9 56 -10 55 -24
0z"/>
<path d="M3130 4585 c-13 -45 -8 -67 10 -49 5 5 12 28 16 52 9 57 -10 55 -26
-3z"/>
<path d="M3116 4484 c-9 -24 -7 -84 3 -84 7 0 21 54 21 88 0 17 -17 15 -24 -4z"/>
<path d="M3095 4324 c-7 -48 0 -68 15 -44 12 19 13 90 1 90 -5 0 -12 -21 -16
-46z"/>
<path d="M3087 4233 c-10 -10 -8 -93 2 -93 7 0 21 54 21 88 0 13 -13 16 -23 5z"/>
<path d="M3065 4070 c-7 -44 2 -71 16 -49 12 19 11 89 0 89 -5 0 -12 -18 -16
-40z"/>
<path d="M3057 3973 c-4 -3 -7 -27 -7 -52 0 -55 16 -45 26 17 6 39 -2 53 -19
35z"/>
<path d="M3048 3854 c-14 -22 -21 -94 -9 -94 6 0 14 6 17 14 8 20 0 93 -8 80z"/>
<path d="M3026 3715 c-9 -25 -7 -85 3 -85 12 0 24 81 13 92 -6 6 -12 3 -16 -7z"/>
<path d="M3006 3568 c-9 -35 -7 -83 3 -72 13 14 25 94 13 94 -5 0 -12 -10 -16
-22z"/>
<path d="M2990 3415 c0 -25 5 -45 10 -45 6 0 10 20 10 45 0 25 -4 45 -10 45
-5 0 -10 -20 -10 -45z"/>
<path d="M2989 3311 c-1 -17 -2 -36 -3 -43 -1 -6 5 -13 12 -15 8 -3 12 8 12
36 0 47 -19 67 -21 22z"/>
<path d="M6521 3252 c-6 -2 -11 -8 -11 -12 0 -12 70 -7 73 5 2 10 -40 14 -62
7z"/>
<path d="M6600 3250 c0 -5 5 -10 10 -10 6 0 10 5 10 10 0 6 -4 10 -10 10 -5 0
-10 -4 -10 -10z"/>
<path d="M6470 3235 c0 -8 7 -15 15 -15 8 0 15 7 15 15 0 8 -7 15 -15 15 -8 0
-15 -7 -15 -15z"/>
<path d="M6377 3234 c-9 -10 2 -24 19 -24 8 0 14 7 14 15 0 15 -21 21 -33 9z"/>
<path d="M6430 3230 c0 -5 7 -10 15 -10 8 0 15 5 15 10 0 6 -7 10 -15 10 -8 0
-15 -4 -15 -10z"/>
<path d="M6317 3224 c-10 -11 3 -24 24 -24 10 0 19 7 19 15 0 15 -31 21 -43 9z"/>
<path d="M2986 3213 c-3 -3 -6 -24 -6 -45 0 -27 4 -38 15 -38 11 0 15 11 15
39 0 38 -10 57 -24 44z"/>
<path d="M6250 3204 c0 -10 7 -14 22 -12 32 5 35 28 4 28 -17 0 -26 -5 -26
-16z"/>
<path d="M6187 3203 c-14 -13 -6 -23 18 -23 16 0 25 6 25 15 0 15 -31 21 -43
8z"/>
<path d="M6110 3185 c0 -9 9 -15 25 -15 16 0 25 6 25 15 0 9 -9 15 -25 15 -16
0 -25 -6 -25 -15z"/>
<path d="M6048 3183 c-19 -5 -24 -18 -10 -26 12 -8 54 12 47 23 -6 10 -9 11
-37 3z"/>
<path d="M5963 3163 c-12 -2 -27 -11 -33 -19 -10 -11 -9 -14 8 -14 29 0 72 18
72 30 0 10 -8 11 -47 3z"/>
<path d="M5865 3132 c-26 -5 -46 -22 -40 -32 6 -10 75 10 75 21 0 12 -13 16
-35 11z"/>
<path d="M2987 3093 c-11 -10 -8 -83 3 -83 6 0 10 8 11 18 0 9 2 24 4 33 4 20
-9 42 -18 32z"/>
<path d="M5734 3086 c-10 -8 -16 -17 -12 -21 9 -9 78 14 78 26 0 14 -44 11
-66 -5z"/>
<path d="M5643 3060 c-26 -10 -31 -30 -9 -30 27 0 67 20 61 30 -7 12 -22 12
-52 0z"/>
<path d="M5548 3030 c-36 -11 -49 -20 -43 -30 8 -13 85 11 85 26 0 16 -3 16
-42 4z"/>
<path d="M5413 2989 c-32 -9 -40 -19 -27 -31 8 -9 94 22 94 33 0 11 -24 10
-67 -2z"/>
<path d="M2980 2935 c0 -25 5 -45 10 -45 6 0 10 20 10 45 0 25 -4 45 -10 45
-5 0 -10 -20 -10 -45z"/>
<path d="M5283 2948 c-29 -14 -30 -28 -3 -28 21 0 80 26 80 35 0 9 -55 4 -77
-7z"/>
<path d="M5183 2917 c-40 -15 -50 -25 -31 -32 21 -8 91 22 83 35 -7 12 -11 12
-52 -3z"/>
<path d="M5047 2874 c-15 -8 -25 -19 -22 -24 7 -12 87 12 93 28 5 17 -37 15
-71 -4z"/>
<path d="M2976 2838 c-9 -34 -7 -68 3 -68 13 0 24 71 13 82 -6 6 -12 1 -16
-14z"/>
<path d="M4934 2840 c-30 -12 -40 -30 -16 -30 28 0 82 20 82 31 0 11 -38 11
-66 -1z"/>
<path d="M4821 2806 c-35 -12 -54 -36 -29 -36 31 0 89 22 85 33 -5 16 -18 17
-56 3z"/>
<path d="M4698 2768 c-21 -6 -38 -16 -38 -24 0 -17 2 -17 51 -2 22 6 39 17 39
25 0 15 -1 15 -52 1z"/>
<path d="M4573 2733 c-12 -2 -27 -11 -33 -19 -10 -11 -8 -14 13 -14 34 0 77
17 77 30 0 10 -16 11 -57 3z"/>
<path d="M2970 2690 c0 -22 5 -40 10 -40 6 0 10 18 10 40 0 22 -4 40 -10 40
-5 0 -10 -18 -10 -40z"/>
<path d="M4453 2697 c-40 -15 -50 -25 -31 -32 21 -8 91 22 83 35 -7 12 -11 12
-52 -3z"/>
<path d="M4328 2658 c-32 -11 -37 -28 -9 -28 29 0 71 18 71 30 0 12 -26 12
-62 -2z"/>
<path d="M4203 2620 c-25 -10 -31 -30 -9 -30 23 0 76 22 76 31 0 11 -38 11
-67 -1z"/>
<path d="M2970 2575 c0 -28 4 -44 10 -40 6 3 10 21 10 40 0 19 -4 37 -10 40
-6 4 -10 -12 -10 -40z"/>
<path d="M4088 2588 c-32 -11 -37 -28 -9 -28 30 0 81 21 75 31 -7 11 -31 10
-66 -3z"/>
<path d="M3988 2560 c-36 -11 -49 -20 -43 -30 8 -13 85 11 85 26 0 16 -3 16
-42 4z"/>
<path d="M3842 2519 c-13 -5 -20 -14 -17 -20 9 -13 65 -2 85 17 12 12 10 14
-15 13 -17 0 -40 -4 -53 -10z"/>
<path d="M3727 2504 c-16 -17 -5 -25 31 -22 20 2 37 8 37 13 0 12 -57 19 -68
9z"/>
<path d="M2955 2481 c-7 -23 12 -74 25 -66 5 3 10 12 10 20 0 7 8 16 17 20 16
6 15 8 -7 25 -31 24 -37 25 -45 1z"/>
<path d="M3623 2488 c2 -7 16 -13 32 -13 16 0 30 6 33 13 2 8 -8 12 -33 12
-25 0 -35 -4 -32 -12z"/>
<path d="M3342 2482 c-12 -2 -20 -8 -17 -13 8 -12 75 -12 75 0 0 11 -28 18
-58 13z"/>
<path d="M3425 2480 c-3 -5 0 -13 9 -16 21 -8 61 -1 61 11 0 14 -62 19 -70 5z"/>
<path d="M3520 2480 c0 -5 18 -10 40 -10 22 0 40 5 40 10 0 6 -18 10 -40 10
-22 0 -40 -4 -40 -10z"/>
<path d="M3043 2468 c2 -7 16 -13 32 -13 16 0 30 6 33 13 2 8 -8 12 -33 12
-25 0 -35 -4 -32 -12z"/>
<path d="M3130 2470 c0 -5 18 -10 41 -10 24 0 38 4 34 10 -3 6 -22 10 -41 10
-19 0 -34 -4 -34 -10z"/>
<path d="M3230 2470 c0 -5 16 -10 35 -10 19 0 35 5 35 10 0 6 -16 10 -35 10
-19 0 -35 -4 -35 -10z"/>
</g>
</svg>
